<?xml version="1.0" encoding="utf-8"?>
<!-- Generator: Adobe Illustrator 26.2.1, SVG Export Plug-In . SVG Version: 6.00 Build 0)  -->
<svg version="1.1" xmlns="http://www.w3.org/2000/svg" xmlns:xlink="http://www.w3.org/1999/xlink" x="0px" y="0px"
	 viewBox="0 0 1024 256" style="enable-background:new 0 0 1024 256;" xml:space="preserve">
<style type="text/css">
	.st0{fill:#FFFFFF;}
	.st1{fill-rule:evenodd;clip-rule:evenodd;fill:none;}
	.st2{fill:#D50000;}
	.st3{fill:none;}
	.st4{fill-rule:evenodd;clip-rule:evenodd;fill:#A60303;}
	.st5{fill:#A60303;}
</style>
<g id="Layer_2">
	<g>
		<g>
			<path class="st0" d="M141.1,171.5l-3-0.4c-1.8-0.2-3-0.8-3.6-1.7c-0.8-1.1-1.1-2.7-1.1-4.8v-6.1c0-7.6-1.7-14.2-5-19.4
				c-2.6-4.1-6.5-7.3-11.6-9.6c4.4-2.5,7.9-5.6,10.5-9.2c3.5-4.9,5.3-10.6,5.3-17.2c0-11.7-4.2-21-12.5-27.7
				c-8.2-6.6-19.5-9.9-33.6-9.9H18.6c-0.9,0-1.7,0.5-2.1,1.4c-0.4,0.8-0.2,1.8,0.4,2.4l13.6,14.6c0.3,0.3,0.8,0.6,1.2,0.7l11,2.1
				v82.8l-11,2.1c-0.7,0.1-1.3,0.6-1.6,1.3l-6.8,14.5c-0.3,0.7-0.3,1.5,0.1,2.2c0.4,0.7,1.1,1,1.9,1h63.5c0.8,0,1.5-0.4,1.9-1
				c0.4-0.7,0.5-1.5,0.1-2.2l-6.8-14.5c-0.3-0.7-0.9-1.1-1.6-1.3l-11.1-2.1v-27.7h17.5c5.1,0.1,8.9,1.6,11.6,4.5
				c2.7,2.9,4.1,7,4.1,12.2v6.9c0,7.2,1.8,13.2,5.3,17.8c3.6,4.8,9.8,7.3,18.5,7.3h12.5c1.2,0,2.3-1,2.3-2.3v-14.6
				C143.1,172.6,142.2,171.6,141.1,171.5z M103.8,104.1c0,4.8-1.4,8.3-4.3,10.7c-2.9,2.5-7.5,3.8-13.7,3.8H71.4v-30h14.9
				c5.9,0,10.3,1.4,13.2,4.2C102.4,95.6,103.8,99.3,103.8,104.1z"/>
		</g>
		<g>
			<path class="st0" d="M240.3,76.6c-8.4-7.4-19.9-11.2-34.2-11.2h-71c-0.9,0-1.7,0.5-2.1,1.4c-0.3,0.8-0.2,1.8,0.4,2.4l13.6,14.6
				c0.3,0.3,0.8,0.6,1.2,0.7l11,2.1v82.8l-11,2.1c-1.1,0.2-1.8,1.1-1.8,2.2v14.5c0,1.2,1,2.3,2.3,2.3h63.5c0.9,0,1.7-0.5,2.1-1.4
				c0.4-0.8,0.2-1.8-0.4-2.4l-13.6-14.5c-0.3-0.3-0.8-0.6-1.2-0.7l-11.1-2.1v-22.6h18.1c14.3,0,25.8-3.7,34.2-11.1
				c8.5-7.4,12.7-17.4,12.7-29.5C253,94.1,248.8,84.1,240.3,76.6z M206.1,123.6H188V88.6h18.1c6.1,0,10.6,1.6,13.6,4.9
				c3.1,3.4,4.6,7.6,4.6,12.8c0,5.1-1.5,9.2-4.6,12.5C216.8,122,212.2,123.6,206.1,123.6z"/>
		</g>
		<g>
			<path class="st0" d="M360.7,128.6v46.3c0,0.6-0.2,1.2-0.7,1.6c-4.1,4.1-10.1,7.7-17.9,11c-7.8,3.2-17.6,4.9-29.4,4.9
				c-16.9,0-30.8-5.7-41.4-17.1c-10.6-11.3-15.9-26.1-15.9-44.1V127c0-18.5,5.3-33.9,15.7-45.5c10.5-11.8,24.3-17.7,41.1-17.7
				c9.7,0,18.7,1.6,26.7,4.7c8.1,3.1,14.9,7.4,20.3,12.7c0.4,0.4,0.7,1,0.7,1.6v31c0,0.7-0.4,1.4-1,1.9c-0.6,0.4-1.4,0.5-2.1,0.2
				l-17.9-6.8c-0.7-0.3-1.2-0.9-1.4-1.7L334.3,92c-1.9-1.5-4.4-2.7-7.4-3.6c-3.4-1.1-7.3-1.6-11.8-1.6c-9.9,0-17.3,3.5-22.8,10.8
				c-5.5,7.3-8.3,17.2-8.3,29.2v4.3c0,11.7,2.7,21.1,8.1,28c5.3,6.8,12.9,10.1,23.1,10.1c4.6,0,8.4-0.4,11.2-1.2
				c2.2-0.6,4-1.3,5.4-2V149l-15.1-1.2c-0.6,0-1.2-0.4-1.6-0.8l-13.6-17c-0.5-0.7-0.6-1.6-0.3-2.4c0.4-0.8,1.2-1.3,2-1.3h55.1
				C359.7,126.3,360.7,127.3,360.7,128.6z"/>
		</g>
		<g>
			<path class="st0" d="M700.2,68.6l-13.6,32.1c-0.4,0.8-1.2,1.4-2.1,1.4H666c-1.2,0-2.2-0.9-2.3-2.1l-0.8-11.4H645v80.8l11.1,2.1
				c0.5,0.1,0.9,0.3,1.2,0.7l13.6,14.5c0.6,0.7,0.8,1.6,0.4,2.4c-0.4,0.8-1.2,1.4-2.1,1.4h-77.2c-0.9,0-1.7-0.5-2.1-1.4
				c-0.4-0.8-0.2-1.8,0.4-2.4l13.6-14.5c0.3-0.3,0.8-0.6,1.2-0.7l11.1-2.1V88.6h-17.8l-0.8,11.4c-0.1,1.2-1.1,2.1-2.2,2.1H577
				c-0.9,0-1.7-0.5-2.1-1.4l-13.6-32.1c-0.3-0.7-0.2-1.5,0.2-2.1c0.4-0.6,1.1-1,1.9-1h134.6c0.8,0,1.5,0.4,1.9,1
				C700.4,67.1,700.5,67.9,700.2,68.6z"/>
		</g>
		<g>
			<path class="st0" d="M761.5,108.3c-7.9-9-18.9-13.5-32.8-13.5c-13.8,0-24.8,4.6-32.7,13.6c-7.8,8.9-11.8,20.5-11.8,34.3v1.7
				c0,14,4,25.6,11.8,34.4c7.9,8.9,19,13.5,32.9,13.5c13.8,0,24.7-4.5,32.6-13.5c7.8-8.9,11.8-20.4,11.8-34.4v-1.7
				C773.2,128.7,769.3,117.1,761.5,108.3z M712.9,142.6c0-7.5,1.3-13.7,4-18.3c2.5-4.3,6.3-6.4,11.8-6.4c5.5,0,9.4,2.1,11.9,6.4
				c2.7,4.6,4.1,10.8,4.1,18.3v1.7c0,7.7-1.4,13.9-4,18.5c-2.5,4.3-6.3,6.3-11.8,6.3c-5.6,0-9.5-2-12-6.3c-2.7-4.6-4-10.8-4-18.5
				V142.6z"/>
		</g>
		<g>
			<path class="st0" d="M856.5,108.3c-7.9-9-18.9-13.5-32.8-13.5c-13.8,0-24.8,4.6-32.7,13.6c-7.8,8.9-11.8,20.5-11.8,34.3v1.7
				c0,14,4,25.6,11.8,34.4c7.9,8.9,18.9,13.5,32.9,13.5c13.8,0,24.7-4.5,32.6-13.5c7.8-8.9,11.8-20.4,11.8-34.4v-1.7
				C868.3,128.7,864.3,117.1,856.5,108.3z M807.9,142.6c0-7.5,1.4-13.7,4-18.3c2.5-4.3,6.3-6.4,11.8-6.4c5.5,0,9.4,2.1,11.9,6.4
				c2.7,4.6,4.1,10.8,4.1,18.3v1.7c0,7.7-1.4,13.9-4,18.5c-2.5,4.3-6.3,6.3-11.8,6.3c-5.6,0-9.5-2-12-6.3c-2.6-4.6-4-10.8-4-18.5
				V142.6z"/>
		</g>
		<g>
			<path class="st0" d="M929.8,189.5c-0.4,0.7-1.1,1-1.9,1h-61.1c-0.8,0-1.5-0.4-1.9-1c-0.4-0.7-0.5-1.5-0.1-2.2l6.8-14.5
				c0.3-0.6,0.9-1.1,1.6-1.2l9.9-2.1V78l-11.1-2.1c-0.5-0.1-0.9-0.3-1.2-0.7l-13.6-14.6c-0.6-0.7-0.8-1.6-0.4-2.4
				c0.4-0.8,1.2-1.4,2.1-1.4h50.7c1.2,0,2.3,1,2.3,2.3v110.4l9.9,2.1c0.7,0.1,1.3,0.6,1.6,1.2l6.8,14.5
				C930.3,188,930.2,188.8,929.8,189.5z"/>
		</g>
		<g>
			<path class="st0" d="M1007.7,162.6c0,8.8-3.8,16-11.3,21.6c-7.3,5.4-17,8.1-28.7,8.1c-7.1,0-13.8-1.1-19.7-3.2
				c-6-2.1-11.4-5.1-16.1-9c-0.5-0.4-0.8-1-0.8-1.6l-1.4-20.1c0-0.6,0.2-1.2,0.6-1.7c0.4-0.5,1-0.7,1.7-0.7h14.6
				c0.8,0,1.6,0.4,2,1.1l6.5,11.3c1.1,0.9,2.7,1.5,4.6,2c2.3,0.5,4.8,0.8,7.3,0.8c4.4,0,7.8-0.8,9.9-2.2c2-1.4,2.9-3,2.9-5.3
				c0-1.9-1-3.6-3-5.1c-2.3-1.7-6.8-3.3-13.4-4.7c-10.8-2.2-19.2-5.6-24.8-10c-5.9-4.6-8.9-11.1-8.9-19c0-8.2,3.4-15.3,10-21.1
				c6.6-5.8,16-8.7,27.9-8.7c7.1,0,14,1,20.4,2.9c6.5,2,11.7,4.5,15.4,7.6c0.5,0.4,0.8,1,0.8,1.6l1.4,22.3c0,0.6-0.2,1.2-0.6,1.7
				c-0.4,0.5-1,0.7-1.7,0.7h-14c-0.8,0-1.6-0.5-2-1.2l-5.7-10.8c-1.4-1-3.2-1.9-5.2-2.7c-2.3-0.8-4.8-1.2-7.6-1.2
				c-3.7,0-6.7,0.8-8.7,2.4c-1.9,1.5-2.8,3.2-2.8,5.4c0,2,0.8,3.6,2.7,5c1.4,1.1,4.9,2.7,13.3,4.3c11.4,2.3,20,5.7,25.7,10.2
				C1004.7,147.9,1007.7,154.4,1007.7,162.6z"/>
		</g>
	</g>
</g>
<g id="Layer_4">
	<path d="M544,131c0,41.5-33.7,75.2-75.2,75.2c-41.5,0-75.2-33.7-75.2-75.2c0-10.1,2-19.8,5.7-28.6c1.7,0.8,3.3,1.3,4.9,1.5
		c0.9,0.1,1.7,0.2,2.5,0.2c4.6,0,8-2.1,9-5.6c0.8-2.6,0.9-5.1,1-7.2c0.1-1.6,0.1-3.1,0.5-4.1c1.4-4.2,3.7-7,6.3-9.8
		c4.6-1.7,11.2-6,12.6-11.2c0.1-0.5,0.2-1,0.1-1.4c-0.1-0.5-0.2-0.9-0.3-1.4c10-4.9,21.1-7.6,32.9-7.6C510.3,55.8,544,89.5,544,131z
		"/>
	<path class="st1" d="M373.4,69.9c-1.5,0.3-2.6,0.4-4.4,1.4c-1,0.5,1.2,7.8,0.6,6.4c-0.6-1.4-3.1-2.9-4.4-5.5
		c-0.8-1.6-0.2-3.7,2.1-4.9c2-0.9,4.5-0.7,6.4,0.3C374.7,68.1,374.3,69.7,373.4,69.9z"/>
	<path class="st1" d="M406.2,44.3c-4.1,3.4-9,6-11,11.7c0,0-13.4-1.6-7-5.2S400.5,45.4,406.2,44.3z"/>
	<path class="st0" d="M516.8,166.4L502.2,181c-0.4-0.9-1.3-2.7-3.3-4.7c-11.8-11.1-20.9-20.4-27.2-27.7l12.2-13.1
		c7.5,6.3,16.9,15.6,28.3,27.6C514,165,515.8,166,516.8,166.4z"/>
	<path class="st0" d="M465.9,119.6L455,129.7c-3-3.1-6.4-6.5-9.7-9.8l10.4-10.4C459.2,113,462.7,116.5,465.9,119.6z"/>
	<path class="st0" d="M434.8,89.2L425,99c-0.3-0.4-0.5-0.7-0.5-0.9c-0.3-1.8,3-5.1,3.7-5.7c1.2-1.2,4.1-3.9,5.7-3.7
		C434.1,88.7,434.4,88.9,434.8,89.2z"/>
	<path class="st0" d="M453.3,103.2c0.5,1.2,1.1,2.8,1,3.1l-12.1,12.1c-0.2,0.2-1.4,0-2.2-0.1c-2.3-0.3-5.5-0.8-7.3,1l-2.6,2.6
		c-0.7,0.7-0.6,1.9-0.3,3.7c0.1,0.5,0.2,1.1,0.2,1.6l-4.9,4.9c-0.5-0.2-2.1-1.1-6.6-5.6c-4.7-4.6-7.1-7.6-7.5-8.5l4.9-4.9
		c0.5,0,1.2,0.1,1.7,0.2c1.7,0.3,2.9,0.4,3.6-0.3l2.6-2.6c1.8-1.8,1.7-4.7,1.6-6.7c0-0.8-0.1-1.8,0.1-1.9l12.1-12.1
		c0.4-0.4,1.5-0.4,2.8,0l0.5,0.1l0.4-0.3c2.7-2,16.5-11,27.9-0.5c-16.2,1-17.5,6.9-17.6,8l0,0.1C451.5,99,452.5,101.4,453.3,103.2z"
		/>
	<path class="st0" d="M521.8,100c-0.1-0.5-0.5-0.8-0.7-0.8l0,0l0,0c-0.1,0-0.2,0-0.3,0c-0.3,0-0.6,0.1-0.8,0.3L506,113.3
		c-0.3,0.3-0.6,0.4-0.8,0.4c-0.1,0-0.2,0-0.3,0l-12.2-3.1c-0.4-0.1-0.7-0.4-0.8-0.8l-3.1-12.2c-0.1-0.4,0-0.8,0.3-1.1L503,82.6
		c0.3-0.3,0.4-0.7,0.3-1v0l0,0c-0.1-0.4-0.4-0.7-0.8-0.8c-2.6-0.7-5.1-1.1-7.5-1.1c-5.9,0-11.3,2.3-15.8,6.9c-6.9,6.9-7.1,18-4.9,26
		c0.4,1.4-0.1,2.9-1.2,3.9l-47.6,44.1c-2.2,2.2-3.4,5.1-3.4,8.2c0,3.1,1.2,6,3.4,8.2c2.2,2.2,5.1,3.4,8.2,3.4c3.1,0,6-1.2,8.2-3.4
		l44-47.5c0.7-0.8,1.8-1.3,2.9-1.3c0.3,0,0.6,0,1,0.1c3,0.8,6.2,1.3,9.3,1.3c4.8,0,11.7-1.1,16.7-6.1
		C522.4,116.8,524.3,109.2,521.8,100z M436.1,172c-0.7,0.5-1.5,0.7-2.2,0.7s-1.6-0.2-2.2-0.7c-1.1-0.8-1.8-2-1.8-3.3
		c0-1.3,0.6-2.6,1.8-3.3c0.6-0.4,1.4-0.7,2.2-0.7c0.8,0,1.6,0.2,2.2,0.7c1.2,0.8,1.8,2,1.8,3.4C437.8,170,437.2,171.2,436.1,172z"/>
	<path class="st0" d="M562.9,105.7C562.9,105.7,562.9,105.7,562.9,105.7C562.9,105.7,563,105.6,562.9,105.7
		C563,105.6,563,105.6,562.9,105.7z"/>
	<path class="st2" d="M562.9,105.7C562.9,105.7,562.9,105.7,562.9,105.7C562.9,105.7,563,105.6,562.9,105.7
		C563,105.6,563,105.6,562.9,105.7z"/>
	<path class="st0" d="M379.7,72.6c0,0.1,0,0.1,0.1,0.2l0.3-0.3C379.9,72.5,379.8,72.6,379.7,72.6z M379.7,72.6c0,0.1,0,0.1,0.1,0.2
		l0.3-0.3C379.9,72.5,379.8,72.6,379.7,72.6z M379.7,72.6c0,0.1,0,0.1,0.1,0.2l0.3-0.3C379.9,72.5,379.8,72.6,379.7,72.6z
		 M379.7,72.6c0,0.1,0,0.1,0.1,0.2l0.3-0.3C379.9,72.5,379.8,72.6,379.7,72.6z M379.7,72.6c0,0.1,0,0.1,0.1,0.2l0.3-0.3
		C379.9,72.5,379.8,72.6,379.7,72.6z M379.7,72.6c0,0.1,0,0.1,0.1,0.2l0.3-0.3C379.9,72.5,379.8,72.6,379.7,72.6z M379.7,72.6
		c0,0.1,0,0.1,0.1,0.2l0.3-0.3C379.9,72.5,379.8,72.6,379.7,72.6z"/>
	<g>
		<path class="st3" d="M576.7,191.4c-5.4,2.6-11.8,5.2-14.8,5.8c11-12.7,18.4-35.6,17.8-55.6c-0.2-7.7-1.6-14.6-4-20.7
			c-1.6-4-3.6-7.6-6.1-10.8l2.4,0.7c0.6,0.2,1.3,0,1.7-0.5c0.4-0.5,0.6-1.1,0.4-1.7c-5.4-16.1-15.1-31-26.4-40.9l4.8,0
			c0.6,0,1.2-0.4,1.5-0.9c0.3-0.6,0.2-1.3-0.2-1.8c-7-9-24.6-19-37-22.8l4-2.5c0.6-0.3,0.9-1,0.8-1.6c-0.1-0.7-0.5-1.2-1.1-1.4
			c-14.6-5-27.3-8.7-42.8-6.7l3.8-3.7c0.6-0.6,1-1.5,1-2.4c0-1.7-1.3-3.2-3.1-3.4c-10.1-0.9-19.9-1.7-29.2-1.7
			c-17.4,0-39.6,2.4-58,21c-10.6,3.8-12.5,6.8-12.9,11.7c0,0.2,0,0.4-0.1,0.7c-3.6,1.9-7.2,4-11.1,7.9c-0.9,0.5-1.8,1-2.7,1.4
			c-1,0.6-2.1,1.1-3.2,1.7c-0.3,0.1-0.5,0.3-0.7,0.5c-2.6,2.4-4.4,6.7-1.4,11.6c2.9,4.8,7.3,8.5,13.1,11.1
			c-1.8,7.7-2.7,16.2-2.9,23.3l-3.5-3.4c-0.5-0.4-1.1-0.6-1.7-0.4c-0.6,0.2-1,0.7-1.1,1.3c-2.4,15-0.1,31.4,6.5,45.6l-4.5-1.3
			c-0.6-0.2-1.3,0-1.7,0.5c-0.4,0.5-0.6,1.1-0.4,1.7c5.3,15.9,15.2,30.8,26.8,40.8h-4.9c-0.6,0-1.2,0.4-1.5,0.9
			c-0.3,0.6-0.2,1.3,0.2,1.8c7,8.9,24.4,18.7,37.1,22.6l-4,2.4c-0.6,0.3-0.9,1-0.8,1.6c0.1,0.7,0.5,1.2,1.1,1.4
			c13.9,4.8,26.9,8.6,43,6.4l-3.4,3.1c-0.5,0.5-0.7,1.2-0.5,1.8c0.2,0.6,0.8,1.1,1.5,1.1c0.6,0,1.3,0.1,2,0.1
			c9.7,0,22.5-4.8,35.1-10.2l-1.4,5c-0.2,0.6,0,1.2,0.4,1.6c0.4,0.4,1,0.6,1.6,0.5c12.5-3.2,24.1-12.5,33-21.9
			c-3.1,4.6-8.1,11.3-16.3,20.8c-0.5,0.5-0.5,1.3-0.2,1.9c0.3,0.6,0.9,0.9,1.5,0.9h0.1c41.1-2.7,64.5-42.5,64.7-42.9
			c0.4-0.6,0.3-1.5-0.2-2C578.2,191.2,577.4,191.1,576.7,191.4z M363,73.8c-2.1-3.5-0.7-6,0.8-7.4c2.1-1.1,4.2-2.3,6.3-3.4
			c4.1-4.3,8-6.2,12-8.4c1.3-4.5-2.1-6.8,11.8-11.7c15.9-16.5,35-20.6,56.2-20.6c9.3,0,18.9,0.8,28.9,1.7c-0.4,0-0.8,0.1-1.3,0.1
			c-2.1,0.2-4.2,0.4-6.3,0.6c-9.7,1-19.7,2.7-28.3,7.2c-0.7,0.4-1.4,0.8-2.1,1.2c-0.7,0.4-1.4,0.9-2.2,1.4c-0.3,0.2-0.5,0.4-0.8,0.6
			c-0.2,0.2-0.9,0.2-1.7,0.2c-1.3,0-3.2-0.1-5.2-0.2c-0.5,0-1,0-1.5,0c-0.6,0-1.3,0-1.9,0.1c-1.6,0.1-3.1,0.3-4.3,0.8
			c-0.6,0.3-1.1,0.6-1.5,1c-0.1,0.1-0.1,0.1-0.2,0.2c-0.9,1.1-1.8,2.5-2.4,4c-0.4,1-0.8,2.1-1.1,3.1c-0.6,2.3-0.8,4.5-0.3,5.6
			c0,0.1,0.1,0.1,0.1,0.2c0.2,0.4,0.8,0.9,1.5,1.4c0.2,0.2,0.5,0.4,0.8,0.6c0.4,0.3,0.9,0.6,1.3,0.9c0.3,0.2,0.6,0.4,1,0.7
			c0.1,0.1,0.2,0.1,0.3,0.2c0.2,0.2,0.5,0.3,0.7,0.5c0.3,0.2,0.7,0.5,1.1,0.8c0.3,0.2,0.6,0.5,0.9,0.7c0.3,0.2,0.6,0.5,0.9,0.7
			c0.3,0.2,0.5,0.4,0.8,0.7c0,0,0.1,0.1,0.1,0.1c0.3,0.3,0.6,0.5,0.9,0.8c0.1,0.1,0.3,0.3,0.4,0.4c0.1,0.1,0.3,0.3,0.4,0.4
			c0.8,0.9,1.5,1.8,2.1,2.8c0.3,0.5,0.5,1,0.7,1.5c0.2,0.5,0.4,1.1,0.5,1.7c0,0.1,0,0.2,0.1,0.3c-1.1,4-7.4,8-11.2,9.1
			c-2.9,3-5.9,6.4-7.6,11.6c-1.1,3.2-0.3,7.1-1.5,11.5c-0.7,2.2-2.9,3.2-5.7,3.2c-0.7,0-1.4-0.1-2.1-0.2c-1.3-0.2-2.6-0.6-4-1.3
			c-0.5-0.2-1-0.5-1.5-0.8c-0.5-0.3-0.9-0.6-1.4-0.9c-1.7-1.1-3.4-2.5-5.1-4c1.9,0.6,4.2,1.7,6.1,1.9c0.1,0,0.3,0,0.4,0
			c0.6,0,1.2-0.1,1.7-0.5c0.3-0.2,0.5-0.4,0.7-0.7c-0.1,0-0.2-0.1-0.3-0.1c-0.5-0.2-1-0.5-1.4-0.8c-2-1.4-3.6-3.2-3.6-3.2
			s1.9,0.7,3.8,0.7c0.4,0,0.9,0,1.3-0.1c1-0.2,2-0.8,2.5-1.9c0,0-0.3-0.3-0.8-0.8c-0.8-0.8-2-2.1-2.1-3.1c0.3,0,0.5,0,0.8,0
			c1.3,0,2.4-0.4,3.4-2.3c-1.3-0.6-2.5-2-3.4-4.2c0.6,0.1,1.1,0.1,1.6,0.1c1.3,0,2.4-0.3,3.1-1.3c-0.7-0.9-1.8-1.8-2.1-4
			c0.5,0.2,1,0.4,1.4,0.4c0.4,0,0.7-0.1,1-0.3c0.1-0.1,0.1-0.1,0.2-0.2c0.1-0.1,0.2-0.2,0.2-0.3c0.1-0.1,0.1-0.2,0.2-0.3
			c0.1-0.1,0.1-0.3,0.2-0.4c0-0.1,0.1-0.3,0.1-0.4c0-0.1,0-0.1,0-0.2c0-0.1,0-0.2,0-0.3c0.1-0.4,0.1-0.9,0.1-1.4c0-0.3,0-0.6,0-0.9
			c-0.1-0.9-0.2-1.7-0.3-2.3l-1.8-1.6c-0.5-0.2-1.1-0.4-1.7-0.5c-0.3,0-0.7,0-1,0c-2.2,0-4.6,0.3-7.2,0.9c0.3,1.9,0.8,3.7,1.5,5.3
			c-2.3-0.7-4.2-2.1-5.9-4c-0.3,0.1-0.5,0.2-0.8,0.3c-1.3,0.9-2.5,1.7-3.8,2.5c0.5,1.9,1.5,3.6,3,5.3c-1.8-0.4-3.4-1.1-4.9-2.1h0
			c-0.5-0.3-0.9-0.7-1.4-1.1c-0.1-0.1-0.2-0.2-0.3-0.3c-1,0.4-2.1,0.8-3.3,1.1l-0.3,0.3c0.2,0.6,0.3,1.2,0.6,1.7
			c0.2,0.6,0.4,1.1,0.7,1.6c0.6,1.3,1.4,2.5,2.4,3.6c-1.4-0.4-2.7-0.9-3.9-1.6c-0.5-0.3-1-0.6-1.5-0.9c-0.5-0.3-0.9-0.7-1.4-1.1
			c-0.2-0.2-0.4-0.3-0.6-0.5l-0.1,0.1c-0.2,0.8-0.3,1.6-0.1,2.4c0.1,0.8,0.5,1.6,0.9,2.4c0.3,0.6,0.8,1.1,1.3,1.7
			c1.5,1.7,3.5,3.1,5,4.2c-2-0.5-3.9-1-5.7-1.7c-0.5-0.2-1.1-0.4-1.6-0.6c-0.5-0.2-1.1-0.5-1.6-0.7C369.4,81.2,365.6,78.1,363,73.8z
			 M436.2,64.8c-0.1-0.5-0.2-0.9-0.3-1.4c10-4.9,21.1-7.6,32.9-7.6c41.5,0,75.2,33.7,75.2,75.2s-33.7,75.2-75.2,75.2
			c-41.5,0-75.2-33.7-75.2-75.2c0-10.1,2-19.8,5.7-28.6c1.7,0.8,3.3,1.3,4.9,1.5c0.9,0.1,1.7,0.2,2.5,0.2c4.6,0,8-2.1,9-5.6
			c0.8-2.6,0.9-5.1,1-7.2c0.1-1.6,0.1-3.1,0.5-4.1c1.4-4.2,3.7-7,6.3-9.8c4.6-1.7,11.2-6,12.6-11.2
			C436.3,65.7,436.3,65.2,436.2,64.8z M498.2,230.8l1.5-5.4c0.2-0.6,0-1.3-0.5-1.7c-0.5-0.4-1.2-0.5-1.8-0.3
			c-11.7,5-24.7,10.3-34.5,11.2l4.4-4c0.6-0.5,0.7-1.3,0.4-2c-0.3-0.6-0.9-0.9-1.5-0.9c-0.1,0-0.2,0-0.4,0
			c-16.5,3.6-29.7,0.4-43.5-4.1l4.4-2.6c0.6-0.4,0.9-1,0.8-1.7c-0.1-0.7-0.6-1.2-1.3-1.4c-10.7-2.3-28-11.2-36.6-19.7l5.9,0
			c0.7,0,1.4-0.5,1.6-1.2c0.2-0.7,0-1.5-0.6-1.9c-11.7-8.7-22.4-23.5-28.3-39.2l5,1.5c0.7,0.2,1.4,0,1.8-0.6
			c0.4-0.5,0.5-1.3,0.2-1.9c-7-13.3-10-29-8.3-43.7l4,3.8c0.5,0.5,1.2,0.6,1.8,0.3c0.6-0.3,1-0.9,1-1.6c-0.2-7.5,0.7-17.3,2.7-25.9
			c1.8,0.7,3.7,1.2,5.8,1.7c0.2,0.1,0.5,0.1,0.8,0.1c1.3,0,2.5-0.7,3.1-1.9c0.7-1.4,0.2-3.2-1-4.1l-0.6-0.4
			c-0.1-0.1-0.1-0.1-0.2-0.2c0.8-0.2,1.5-0.7,2-1.4c0.8-1.3,0.7-2.9-0.3-4.1c-0.2-0.2-0.4-0.5-0.6-0.7c1.2,0.6,2.5,1,3.8,1.3
			c0.2,0.1,0.5,0.1,0.7,0.1c1.2,0,2.3-0.6,2.9-1.7c0.7-1.3,0.6-2.9-0.5-4c-0.4-0.5-0.8-0.9-1.1-1.4c1.6,1.3,3.3,2.2,5.1,2.8
			c0.3,0.1,0.7,0.2,1,0.2c1,0,1.9-0.4,2.5-1.2c0.9-1,1.1-2.4,0.5-3.7c-0.2-0.4-0.3-0.8-0.5-1.2C401,68,402,68,403,68
			c0.2,0,0.5,0,0.7,0c0.1,0,0.1,0,0.2,0l0.5,0.4c0.1,0.5,0.1,1.1,0.1,1.5h0c-0.7,0-1.4,0.2-2,0.7c-1,0.7-1.5,2-1.3,3.2
			c0.1,0.5,0.2,0.9,0.3,1.3c-0.3,0-0.7,0.1-1,0.3c-0.1,0-0.2,0.1-0.2,0.1c-0.4,0.2-0.8,0.5-1.1,0.9c-0.3,0.4-0.5,0.9-0.6,1.5
			c-0.1,0.3-0.1,0.6,0,0.9c0,0.2,0.1,0.5,0.1,0.7c0,0.1,0.1,0.2,0.1,0.3c0.3,0.7,0.7,1.4,1,2.1c-0.4,0.1-0.7,0.4-1,0.6
			c-0.7,0.7-1.1,1.6-1.1,2.6c0,0.7,0.2,1.4,0.6,2.1c-0.3-0.1-0.6-0.2-0.8-0.2c-0.4-0.1-0.8-0.2-1.2-0.2c-1.1,0-2.1,0.5-2.8,1.5
			c-0.4,0.6-0.6,1.3-0.6,2c-0.1,0-0.2,0-0.2,0c-0.3,0-0.6,0-0.8,0.1c-0.1,0-0.3,0.1-0.4,0.1c-0.1,0-0.2,0.1-0.4,0.2c0,0,0,0,0,0
			c-0.1,0.1-0.2,0.1-0.3,0.2c-0.1,0.1-0.3,0.2-0.4,0.3c-0.1,0.1-0.2,0.2-0.3,0.3c-0.1,0.1-0.2,0.3-0.3,0.4c-0.4,0.7-0.5,1.5-0.4,2.2
			c0,0.1,0,0.2,0.1,0.3c0,0.1,0,0.2,0.1,0.3c0.1,0.2,0.1,0.3,0.2,0.5c0,0.1,0.1,0.2,0.1,0.2c0.2,0.2,0.3,0.5,0.6,0.7
			c2.1,1.9,4.1,3.4,5.9,4.6c-3.9,9.3-6.1,19.6-6.1,30.3c0,43.3,35.2,78.6,78.6,78.6c42.8,0,77.7-34.4,78.6-76.9c0-0.6,0-1.1,0-1.6
			c0-0.8,0-1.6,0-2.5c0-0.6,0-1.1-0.1-1.6c0-0.6-0.1-1.3-0.1-1.9c-3.1-40.5-37-72.6-78.3-72.6c-12.3,0-23.9,2.8-34.3,7.9
			c-0.2-0.3-0.4-0.7-0.6-1c-0.2-0.3-0.4-0.6-0.6-0.8c-0.1-0.1-0.1-0.2-0.2-0.3c-0.1-0.2-0.3-0.4-0.5-0.6c-2.6-3.1-6-5.4-8.6-7.2
			c-1-0.7-2.2-1.5-2.8-2c-0.2-1.6,1-6.3,3.1-8.8c0.1-0.1,0.2-0.2,0.3-0.4c0,0,0.2-0.1,0.6-0.3c0.7-0.2,2-0.5,4.5-0.5
			c1.3,0,2.6,0.1,3.8,0.1c1,0,2,0.1,2.8,0.1c0.9,0,1.7-0.1,2.5-0.3c0.4-0.1,0.8-0.3,1.2-0.6c1.2-0.9,2.5-1.7,3.8-2.4
			c3.8-2.1,7.8-3.6,12-4.7c5.3-1.4,10.9-2.1,16.3-2.7c1.1-0.1,2.1-0.2,3.2-0.3l-4.2,3.8c-0.6,0.5-0.7,1.3-0.4,2
			c0.3,0.7,1.1,1,1.8,0.9c16.1-3.5,28.9-0.4,43.3,4.4l-4.3,2.6c-0.6,0.4-0.9,1-0.8,1.7c0.1,0.7,0.6,1.2,1.3,1.4
			c10.4,2.3,27.9,11.4,36.4,19.9l-5.9,0h0c-0.7,0-1.4,0.5-1.6,1.1c-0.2,0.7,0,1.5,0.6,1.9c11.7,8.7,22,23.2,28,39.2l-4.9-1.4l-0.1,0
			c0,0,0,0,0,0c-0.1,0-0.1,0-0.2,0c-0.1,0-0.2,0-0.3,0c-0.1,0-0.2,0-0.4,0c-0.1,0-0.2,0.1-0.3,0.1c0,0-0.1,0-0.1,0.1
			c-0.1,0-0.1,0.1-0.2,0.1c0,0,0,0,0,0c0,0-0.1,0-0.1,0.1c0,0-0.1,0.1-0.1,0.1c0,0,0,0,0,0c0,0,0,0,0,0.1c0,0.1-0.1,0.1-0.1,0.2
			c0,0,0,0,0,0c0,0.1-0.1,0.2-0.1,0.2c0,0.1-0.1,0.2-0.1,0.3c0,0.1,0,0.2,0,0.3c0,0.1,0,0.2,0,0.3c0,0.1,0,0.2,0.1,0.3
			c0,0,0,0.1,0,0.1c0,0,0,0.1,0,0.1c0.3,0.7,0.7,1.3,1,2c0.4,0.7,0.7,1.5,1.1,2.3c0.3,0.6,0.6,1.3,0.8,1.9
			c4.8,11.7,6.6,24.8,5.2,37.2l-3.9-3.8c-0.5-0.5-1.2-0.6-1.8-0.3c-0.6,0.3-1,0.9-1,1.6c0.2,10-1.5,24.4-5.3,34.3l-3-4.1
			c-0.4-0.5-1-0.8-1.6-0.7c-0.6,0.1-1.1,0.6-1.3,1.1c-2.1,6.7-8.5,22-15.3,29.8l-0.2-5.4v-0.1l0-0.2c0-0.7-0.5-1.3-1.1-1.5
			c0,0-0.1,0-0.1,0c-0.6-0.2-1.3,0.1-1.7,0.6c-0.1,0.1-0.2,0.2-0.2,0.3C526.8,211.2,513.2,225.6,498.2,230.8z M518.1,232.8
			c8.5-10,13.3-16.8,15.9-21.3l0,1.4c0,0.6,0.4,1.2,1,1.5c0.6,0.3,1.3,0.2,1.8-0.2c7.4-6.1,14.7-21.8,18-30.9l2.9,3.9
			c0.3,0.5,0.9,0.7,1.5,0.7c0.6-0.1,1.1-0.4,1.4-1c4.4-9.4,6.4-23.6,6.7-34.4l3.5,3.4c0.5,0.4,1.1,0.6,1.7,0.4
			c0.6-0.2,1-0.7,1.1-1.3c1.9-12,0.9-24.7-2.8-36.5c4,7.8,5.3,16.5,5.5,23.3c0.6,20.1-7.1,43.1-18.3,54.8c-0.2,0.2-0.4,0.5-0.4,0.8
			c-0.2,1.1,0.1,2.1,0.9,2.7c2.1,1.6,8.2-0.3,14.3-3C565.5,207,546.6,229.1,518.1,232.8z"/>
		<path class="st3" d="M373.4,69.9c-1.5,0.3-2.6,0.4-4.4,1.4c-1,0.5,1.2,7.8,0.6,6.4c-0.6-1.4-3.1-2.9-4.4-5.5
			c-0.8-1.6-0.2-3.7,2.1-4.9c2-0.9,4.5-0.7,6.4,0.3C374.7,68.1,374.3,69.7,373.4,69.9z"/>
		<path class="st3" d="M406.2,44.3c-4.1,3.4-9,6-11,11.7c0,0-13.4-1.6-7-5.2S400.5,45.4,406.2,44.3z"/>
	</g>
	<g>
		<path class="st4" d="M572.7,197c-7.2,10-26.1,32.1-54.6,35.9c8.5-10,13.3-16.8,15.9-21.3l0,1.4c0,0.6,0.4,1.2,1,1.5
			c0.6,0.3,1.3,0.2,1.8-0.2c7.4-6.1,14.7-21.8,18-30.9l2.9,3.9c0.3,0.5,0.9,0.7,1.5,0.7c0.6-0.1,1.1-0.4,1.4-1
			c4.4-9.4,6.4-23.6,6.7-34.4l3.5,3.4c0.5,0.4,1.1,0.6,1.7,0.4c0.6-0.2,1-0.7,1.1-1.3c1.9-12,0.9-24.7-2.8-36.5
			c4,7.8,5.3,16.5,5.5,23.3c0.6,20.1-7.1,43.1-18.3,54.8c-0.2,0.2-0.4,0.5-0.4,0.8c-0.2,1.1,0.1,2.1,0.9,2.7
			C560.5,201.6,566.6,199.6,572.7,197z"/>
		<path class="st5" d="M570.7,151.1l-3.9-3.8c-0.5-0.5-1.2-0.6-1.8-0.3c-0.6,0.3-1,0.9-1,1.6c0.2,10-1.5,24.4-5.3,34.3l-3-4.1
			c-0.4-0.5-1-0.8-1.6-0.7c-0.6,0.1-1.1,0.6-1.3,1.1c-2.1,6.7-8.5,22-15.3,29.8l-0.2-5.4v-0.1l0-0.2c0-0.7-0.5-1.3-1.1-1.5
			c0,0-0.1,0-0.1,0c-0.6-0.2-1.3,0.1-1.7,0.6c-0.1,0.1-0.2,0.2-0.2,0.3c-7.1,8.7-20.7,23.1-35.8,28.3l1.5-5.4c0.2-0.6,0-1.3-0.5-1.7
			c-0.5-0.4-1.2-0.5-1.8-0.3c-11.7,5-24.7,10.3-34.5,11.2l4.4-4c0.6-0.5,0.7-1.3,0.4-2c-0.3-0.6-0.9-0.9-1.5-0.9c-0.1,0-0.2,0-0.4,0
			c-16.5,3.6-29.7,0.4-43.5-4.1l4.4-2.6c0.6-0.4,0.9-1,0.8-1.7c-0.1-0.7-0.6-1.2-1.3-1.4c-10.7-2.3-28-11.2-36.6-19.7l5.9,0
			c0.7,0,1.4-0.5,1.6-1.2c0.2-0.7,0-1.5-0.6-1.9c-11.7-8.7-22.4-23.5-28.3-39.2l5,1.5c0.7,0.2,1.4,0,1.8-0.6
			c0.4-0.5,0.5-1.3,0.2-1.9c-7-13.3-10-29-8.3-43.7l4,3.8c0.5,0.5,1.2,0.6,1.8,0.3c0.6-0.3,1-0.9,1-1.6c-0.2-7.5,0.7-17.3,2.7-25.9
			c1.8,0.7,3.7,1.2,5.8,1.7c0.2,0.1,0.5,0.1,0.8,0.1c1.3,0,2.5-0.7,3.1-1.9c0.7-1.4,0.2-3.2-1-4.1l-0.6-0.4
			c-0.1-0.1-0.1-0.1-0.2-0.2c0.8-0.2,1.5-0.7,2-1.4c0.8-1.3,0.7-2.9-0.3-4.1c-0.2-0.2-0.4-0.5-0.6-0.7c1.2,0.6,2.5,1,3.8,1.3
			c0.2,0.1,0.5,0.1,0.7,0.1c1.2,0,2.3-0.6,2.9-1.7c0.7-1.3,0.6-2.9-0.5-4c-0.4-0.5-0.8-0.9-1.1-1.4c1.6,1.3,3.3,2.2,5.1,2.8
			c0.3,0.1,0.7,0.2,1,0.2c1,0,1.9-0.4,2.5-1.2c0.9-1,1.1-2.4,0.5-3.7c-0.2-0.4-0.3-0.8-0.5-1.2C401,68,402,68,403,68
			c0.2,0,0.5,0,0.7,0c0.1,0,0.1,0,0.2,0l0.5,0.4c0.1,0.5,0.1,1.1,0.1,1.5h0c-0.7,0-1.4,0.2-2,0.7c-1,0.7-1.5,2-1.3,3.2
			c0.1,0.5,0.2,0.9,0.3,1.3c-0.3,0-0.7,0.1-1,0.3c-0.1,0-0.2,0.1-0.2,0.1c-0.4,0.2-0.8,0.5-1.1,0.9c-0.3,0.4-0.5,0.9-0.6,1.5
			c-0.1,0.3-0.1,0.6,0,0.9c0,0.2,0.1,0.5,0.1,0.7c0,0.1,0.1,0.2,0.1,0.3c0.3,0.7,0.7,1.4,1,2.1c-0.4,0.1-0.7,0.4-1,0.6
			c-0.7,0.7-1.1,1.6-1.1,2.6c0,0.7,0.2,1.4,0.6,2.1c-0.3-0.1-0.6-0.2-0.8-0.2c-0.4-0.1-0.8-0.2-1.2-0.2c-1.1,0-2.1,0.5-2.8,1.5
			c-0.4,0.6-0.6,1.3-0.6,2c-0.1,0-0.2,0-0.2,0c-0.3,0-0.6,0-0.8,0.1c-0.1,0-0.3,0.1-0.4,0.1c-0.1,0-0.2,0.1-0.4,0.2c0,0,0,0,0,0
			c-0.1,0.1-0.2,0.1-0.3,0.2c-0.1,0.1-0.3,0.2-0.4,0.3c-0.1,0.1-0.2,0.2-0.3,0.3c-0.1,0.1-0.2,0.3-0.3,0.4c-0.4,0.7-0.5,1.5-0.4,2.2
			c0,0.1,0,0.2,0.1,0.3c0,0.1,0,0.2,0.1,0.3c0.1,0.2,0.1,0.3,0.2,0.5c0,0.1,0.1,0.2,0.1,0.2c0.2,0.2,0.3,0.5,0.6,0.7
			c2.1,1.9,4.1,3.4,5.9,4.6c-3.9,9.3-6.1,19.6-6.1,30.3c0,43.3,35.2,78.6,78.6,78.6c42.8,0,77.7-34.4,78.6-76.9c0-0.6,0-1.1,0-1.6
			c0-0.8,0-1.6,0-2.5c0-0.6,0-1.1-0.1-1.6c0-0.6-0.1-1.3-0.1-1.9c-3.1-40.5-37-72.6-78.3-72.6c-12.3,0-23.9,2.8-34.3,7.9
			c-0.2-0.3-0.4-0.7-0.6-1c-0.2-0.3-0.4-0.6-0.6-0.8c-0.1-0.1-0.1-0.2-0.2-0.3c-0.1-0.2-0.3-0.4-0.5-0.6c-2.6-3.1-6-5.4-8.6-7.2
			c-1-0.7-2.2-1.5-2.8-2c-0.2-1.6,1-6.3,3.1-8.8c0.1-0.1,0.2-0.2,0.3-0.4c0,0,0.2-0.1,0.6-0.3c0.7-0.2,2-0.5,4.5-0.5
			c1.3,0,2.6,0.1,3.8,0.1c1,0,2,0.1,2.8,0.1c0.9,0,1.7-0.1,2.5-0.3c0.4-0.1,0.8-0.3,1.2-0.6c1.2-0.9,2.5-1.7,3.8-2.4
			c3.8-2.1,7.8-3.6,12-4.7c5.3-1.4,10.9-2.1,16.3-2.7c1.1-0.1,2.1-0.2,3.2-0.3l-4.2,3.8c-0.6,0.5-0.7,1.3-0.4,2
			c0.3,0.7,1.1,1,1.8,0.9c16.1-3.5,28.9-0.4,43.3,4.4l-4.3,2.6c-0.6,0.4-0.9,1-0.8,1.7c0.1,0.7,0.6,1.2,1.3,1.4
			c10.4,2.3,27.9,11.4,36.4,19.9l-5.9,0h0c-0.7,0-1.4,0.5-1.6,1.1c-0.2,0.7,0,1.5,0.6,1.9c11.7,8.7,22,23.2,28,39.2l-4.9-1.4l-0.1,0
			c0,0,0,0,0,0c-0.1,0-0.1,0-0.2,0c-0.1,0-0.2,0-0.3,0c-0.1,0-0.2,0-0.4,0c-0.1,0-0.2,0.1-0.3,0.1c0,0-0.1,0-0.1,0.1
			c-0.1,0-0.1,0.1-0.2,0.1c0,0,0,0,0,0c0,0-0.1,0-0.1,0.1c0,0-0.1,0-0.1,0.1c0,0,0,0,0,0.1c0,0,0,0,0,0c0,0,0,0,0,0.1
			c0,0.1-0.1,0.1-0.1,0.2c0,0,0,0,0,0c0,0.1-0.1,0.2-0.1,0.2c0,0.1-0.1,0.2-0.1,0.3c0,0.1,0,0.2,0,0.3c0,0.1,0,0.2,0,0.3
			c0,0.1,0,0.2,0.1,0.3c0,0,0,0.1,0,0.1c0,0,0,0.1,0,0.1c0.3,0.7,0.7,1.3,1,2c0.4,0.7,0.7,1.5,1.1,2.3c0.3,0.6,0.6,1.3,0.8,1.9
			C570.3,125.5,572.2,138.6,570.7,151.1z"/>
		<path class="st5" d="M450.2,22.3c-21.2,0-40.2,4.1-56.2,20.6c-14,4.9-10.5,7.2-11.8,11.7c-4.1,2.2-8,4.2-12,8.4
			c-2.1,1.1-4.2,2.3-6.3,3.4c-1.5,1.4-2.9,3.9-0.8,7.4c2.6,4.3,6.5,7.4,11.1,9.6c0.5,0.2,1,0.5,1.6,0.7c0.5,0.2,1,0.4,1.6,0.6
			c1.8,0.7,3.8,1.2,5.7,1.7c-1.5-1.1-3.5-2.6-5-4.2c-0.5-0.5-0.9-1.1-1.3-1.7c-0.5-0.8-0.8-1.6-0.9-2.4c-0.1-0.8-0.1-1.6,0.1-2.4
			l0.1-0.1c0.2,0.2,0.4,0.4,0.6,0.5c0.4,0.4,0.9,0.8,1.4,1.1c0.5,0.3,1,0.6,1.5,0.9c1.2,0.7,2.6,1.2,3.9,1.6c-1-1.1-1.7-2.3-2.4-3.6
			c-0.3-0.5-0.5-1.1-0.7-1.6c-0.2-0.6-0.4-1.1-0.6-1.7c0-0.1,0-0.1-0.1-0.2c0.1,0,0.3-0.1,0.4-0.1c1.2-0.3,2.3-0.7,3.3-1.1
			c0.1,0.1,0.2,0.2,0.3,0.3c0.4,0.4,0.9,0.8,1.4,1.1h0c1.5,1,3.1,1.7,4.9,2.1c-1.6-1.7-2.6-3.4-3-5.3c1.3-0.8,2.5-1.7,3.8-2.5
			c0.3-0.1,0.5-0.2,0.8-0.3c1.7,1.9,3.6,3.3,5.9,4c-0.8-1.6-1.3-3.4-1.5-5.3c2.6-0.6,5-0.9,7.2-0.9c0.3,0,0.7,0,1,0
			c0.6,0.1,1.1,0.2,1.7,0.5l1.8,1.6c0.1,0.6,0.3,1.4,0.3,2.3c0,0.3,0,0.6,0,0.9c0,0.5,0,1-0.1,1.4c0,0.1,0,0.2,0,0.3
			c0,0.1,0,0.1,0,0.2c0,0.1-0.1,0.3-0.1,0.4c0,0.1-0.1,0.3-0.2,0.4c0,0.1-0.1,0.2-0.2,0.3c-0.1,0.1-0.1,0.2-0.2,0.3
			c0,0.1-0.1,0.1-0.2,0.2c-0.3,0.2-0.6,0.3-1,0.3c-0.4,0-0.8-0.1-1.4-0.4c0.3,2.1,1.4,3,2.1,4c-0.8,1-1.9,1.3-3.1,1.3
			c-0.5,0-1.1,0-1.6-0.1c0.9,2.2,2.1,3.6,3.4,4.2c-0.9,1.9-2.1,2.3-3.4,2.3c-0.3,0-0.5,0-0.8,0c0,0.9,1.2,2.3,2.1,3.1
			c0.5,0.5,0.8,0.8,0.8,0.8c-0.5,1.1-1.4,1.7-2.5,1.9c-0.4,0.1-0.9,0.1-1.3,0.1c-1.9,0-3.8-0.7-3.8-0.7s1.6,1.9,3.6,3.2
			c0.5,0.3,0.9,0.6,1.4,0.8c0.1,0,0.2,0.1,0.3,0.1c-0.2,0.3-0.4,0.5-0.7,0.7c-0.5,0.3-1.1,0.5-1.7,0.5c-0.1,0-0.2,0-0.4,0
			c-1.9-0.1-4.3-1.3-6.1-1.9c1.7,1.5,3.4,2.9,5.1,4c0.5,0.3,0.9,0.6,1.4,0.9c0.5,0.3,1,0.6,1.5,0.8c1.4,0.7,2.7,1.1,4,1.3
			c0.7,0.1,1.4,0.2,2.1,0.2c2.8,0,5.1-1,5.7-3.2c1.3-4.3,0.5-8.3,1.5-11.5c1.7-5.2,4.7-8.6,7.6-11.6c3.8-1.1,10.1-5.1,11.2-9.1
			c0-0.1,0-0.2-0.1-0.3c-0.1-0.6-0.3-1.1-0.5-1.7c-0.2-0.5-0.5-1-0.7-1.5c-0.6-1-1.3-1.9-2.1-2.8c-0.1-0.1-0.3-0.3-0.4-0.4
			c-0.1-0.1-0.3-0.3-0.4-0.4c-0.3-0.3-0.6-0.6-0.9-0.8c0,0-0.1-0.1-0.1-0.1c-0.3-0.2-0.5-0.4-0.8-0.7c-0.3-0.3-0.6-0.5-0.9-0.7
			c-0.3-0.2-0.6-0.5-0.9-0.7c-0.4-0.3-0.7-0.5-1.1-0.8c-0.2-0.2-0.5-0.3-0.7-0.5c-0.1-0.1-0.2-0.1-0.3-0.2c-0.3-0.2-0.7-0.5-1-0.7
			c-0.5-0.3-0.9-0.6-1.3-0.9c-0.3-0.2-0.5-0.4-0.8-0.6c-0.7-0.5-1.2-1-1.5-1.4c-0.1-0.1-0.1-0.2-0.1-0.2c-0.5-1.1-0.3-3.3,0.3-5.6
			c0.3-1,0.6-2.1,1.1-3.1c0.7-1.5,1.5-2.9,2.4-4c0-0.1,0.1-0.1,0.2-0.2c0.4-0.4,0.9-0.8,1.5-1c1.2-0.5,2.7-0.7,4.3-0.8
			c0.6,0,1.2-0.1,1.9-0.1c0.5,0,1,0,1.5,0c2,0.1,3.8,0.2,5.2,0.2c0.8,0,1.5-0.1,1.7-0.2c0.3-0.2,0.5-0.4,0.8-0.6
			c0.7-0.5,1.4-0.9,2.2-1.4c0.7-0.4,1.4-0.8,2.1-1.2c8.6-4.6,18.6-6.2,28.3-7.2c2.1-0.2,4.2-0.4,6.3-0.6c0.4,0,0.8-0.1,1.3-0.1
			C469.1,23.1,459.4,22.3,450.2,22.3z M373.4,69.9c-1.5,0.3-2.6,0.4-4.4,1.4c-1,0.5,1.2,7.8,0.6,6.4c-0.6-1.4-3.1-2.9-4.4-5.5
			c-0.8-1.6-0.2-3.7,2.1-4.9c2-0.9,4.5-0.7,6.4,0.3C374.7,68.1,374.3,69.7,373.4,69.9z M395.3,56c0,0-13.4-1.6-7-5.2
			s12.2-5.3,18-6.5C402.1,47.7,397.3,50.3,395.3,56z"/>
	</g>
</g>
</svg>
